<svg width="15" height="15" viewBox="0 0 15 15" fill="none" xmlns="http://www.w3.org/2000/svg">
<path d="M7.46528 0C7.75293 0 7.98611 0.233185 7.98611 0.520833V1.21528C7.98611 1.50293 7.75293 1.73611 7.46528 1.73611C7.17763 1.73611 6.94444 1.50293 6.94444 1.21528V0.520833C6.94444 0.233185 7.17763 0 7.46528 0Z" fill="#E9EAF0"/>
<path fill-rule="evenodd" clip-rule="evenodd" d="M3.47222 7.46528C3.47222 5.25997 5.25997 3.47222 7.46528 3.47222C9.67058 3.47222 11.4583 5.25997 11.4583 7.46528C11.4583 9.67058 9.67058 11.4583 7.46528 11.4583C5.25997 11.4583 3.47222 9.67058 3.47222 7.46528ZM7.46528 4.51389C5.83527 4.51389 4.51389 5.83527 4.51389 7.46528C4.51389 9.09528 5.83527 10.4167 7.46528 10.4167C9.09528 10.4167 10.4167 9.09528 10.4167 7.46528C10.4167 5.83527 9.09528 4.51389 7.46528 4.51389Z" fill="#E9EAF0"/>
<path d="M2.92311 2.18654C2.71971 1.98315 2.38994 1.98315 2.18654 2.18654C1.98314 2.38994 1.98314 2.71972 2.18654 2.92311L2.67759 3.41416C2.88098 3.61756 3.21076 3.61756 3.41416 3.41416C3.61755 3.21076 3.61755 2.88099 3.41416 2.67759L2.92311 2.18654Z" fill="#E9EAF0"/>
<path d="M14.9306 7.46528C14.9306 7.75293 14.6974 7.98611 14.4097 7.98611H13.7153C13.4276 7.98611 13.1944 7.75293 13.1944 7.46528C13.1944 7.17763 13.4276 6.94444 13.7153 6.94444H14.4097C14.6974 6.94444 14.9306 7.17763 14.9306 7.46528Z" fill="#E9EAF0"/>
<path d="M12.744 2.92311C12.9474 2.71971 12.9474 2.38994 12.744 2.18654C12.5406 1.98314 12.2108 1.98314 12.0074 2.18654L11.5164 2.67759C11.313 2.88098 11.313 3.21076 11.5164 3.41416C11.7198 3.61755 12.0496 3.61755 12.253 3.41416L12.744 2.92311Z" fill="#E9EAF0"/>
<path d="M7.46528 13.1944C7.75293 13.1944 7.98611 13.4276 7.98611 13.7153V14.4097C7.98611 14.6974 7.75293 14.9306 7.46528 14.9306C7.17763 14.9306 6.94444 14.6974 6.94444 14.4097V13.7153C6.94444 13.4276 7.17763 13.1944 7.46528 13.1944Z" fill="#E9EAF0"/>
<path d="M12.253 11.5164C12.0496 11.313 11.7198 11.313 11.5164 11.5164C11.313 11.7198 11.313 12.0496 11.5164 12.253L12.0075 12.744C12.2109 12.9474 12.5407 12.9474 12.7441 12.744C12.9475 12.5406 12.9475 12.2108 12.7441 12.0075L12.253 11.5164Z" fill="#E9EAF0"/>
<path d="M1.73611 7.46528C1.73611 7.75293 1.50293 7.98611 1.21528 7.98611H0.520833C0.233185 7.98611 0 7.75293 0 7.46528C0 7.17763 0.233185 6.94444 0.520833 6.94444H1.21528C1.50293 6.94444 1.73611 7.17763 1.73611 7.46528Z" fill="#E9EAF0"/>
<path d="M3.41411 12.253C3.61751 12.0496 3.61751 11.7198 3.41411 11.5164C3.21071 11.313 2.88094 11.313 2.67754 11.5164L2.18649 12.0074C1.98309 12.2108 1.98309 12.5406 2.18649 12.744C2.38989 12.9474 2.71966 12.9474 2.92306 12.744L3.41411 12.253Z" fill="#E9EAF0"/>
</svg>
