<svg width="28" height="28" viewBox="0 0 28 28" fill="none" xmlns="http://www.w3.org/2000/svg">
<path d="M14 0C21.732 0 28 6.26801 28 14C28 21.732 21.732 28 14 28C6.26801 28 0 21.732 0 14C0 6.26801 6.26801 0 14 0ZM7.24707 10.6279V20H10.3398V10.6279H7.24707ZM18.4434 10.4404C16.8356 10.4404 15.8385 11.1697 15.3193 11.8301V10.6279H12.2266V20H15.3193C15.3193 20 15.3193 17.0498 15.3193 15.2051C15.3193 14.0979 15.6976 12.9854 17.2061 12.9854C18.9107 12.9854 18.9005 14.4341 18.8926 15.5566C18.8822 17.024 18.9072 18.5219 18.9072 20H22V15.0537C21.9738 11.8954 21.1508 10.4405 18.4434 10.4404ZM8.80957 6C7.81033 6 7 6.75783 7 7.69238C7.00014 8.62682 7.81042 9.38477 8.80957 9.38477C9.80859 9.38462 10.618 8.62673 10.6182 7.69238C10.6182 6.75793 9.80867 6.00015 8.80957 6Z" fill="#EFD5FF"/>
</svg>
