<svg width="814" height="176" viewBox="0 0 814 176" fill="none" xmlns="http://www.w3.org/2000/svg">
<g clip-path="url(#clip0_870_1795)">
<path d="M175.704 1.66457L217.358 1.6072C224.632 1.60335 236.63 1.24394 243.525 2.3791C247.571 3.0373 251.46 4.44338 254.99 6.52525C270.021 15.407 271.062 38.7612 256.787 48.8724C252.314 52.0407 248.047 53.1055 242.822 54.4184C244.65 54.5399 246.473 54.7182 248.29 54.9532C265.318 57.1579 273.078 68.6887 270.897 85.206C265.368 111.574 240.75 108.715 219.961 108.719L175.664 108.748C174.801 81.2235 175.944 53.2337 175.489 25.6632C175.36 17.8146 175.306 9.47184 175.704 1.66457ZM245.046 85.8429C249.101 80.8328 250.226 71.4837 244.594 67.1069C238.459 62.3383 229.879 63.7703 222.621 63.5202C214.201 63.394 205.805 63.6683 197.423 63.5631L197.464 89.3438L221.877 89.4149C230.375 89.4371 237.619 90.6024 245.046 85.8429ZM197.491 45.7796C204.486 45.7343 211.481 45.7332 218.475 45.7756C227.3 45.8054 234.085 47.2041 241.531 41.9146C243.782 38.2751 245.595 33.7752 244.567 29.4157C243.912 26.6375 241.951 24.475 239.549 23.025C231.916 18.4181 207.512 21.5187 197.398 20.6587L197.491 45.7796Z" fill="#FEFEFE"/>
<path d="M114.064 1.59859L138.148 1.59332C136.519 5.23192 131.137 18.3515 130.325 21.9857C126.578 29.5393 121.615 43.3939 118.281 51.8581L95.7211 108.728L68.8808 108.735C60.1649 88.7598 52.6198 66.8922 44.1977 46.6753C40.8861 38.7255 37.8059 29.3376 34.1185 21.696C34.7391 50.0579 34.2473 80.2385 34.2459 108.728L13.2469 108.738C13.0646 102.92 13.0823 96.9536 13.1338 91.1304C13.3972 61.3418 12.7242 31.4134 13.2122 1.63923L50.1873 1.65744C50.9448 4.15753 51.9609 6.5627 52.896 8.99999C59.9031 27.262 66.9888 45.4981 73.9417 63.7803C76.991 71.799 79.5372 80.0543 82.3977 88.1671C90.072 64.9428 98.0693 44.9169 106.509 22.0448C109.07 15.9133 111.984 7.88749 114.064 1.59859Z" fill="#FEFEFE"/>
<path d="M114.063 1.59859L138.148 1.59332C136.519 5.23192 131.137 18.3515 130.325 21.9857C124.149 22.4126 113.044 22.0615 106.508 22.0448C109.07 15.9133 111.983 7.88749 114.063 1.59859Z" fill="#AF32FE"/>
<path d="M630.044 41.3834C641.108 42.3716 666.987 39.4405 675.698 43.8028C679.111 45.5128 681.929 48.3186 683.121 52.0045C684.576 56.4949 684.508 62.1461 682.354 66.3693C679.755 71.475 675.59 73.3676 670.408 75.0617C683.109 77.1953 688.816 83.2201 686.94 96.3926C682.398 112.567 666.227 110.018 652.962 109.985L630.076 109.991C629.468 102.197 629.845 87.2035 629.905 78.8545C629.984 67.4718 629.432 52.4544 630.044 41.3834ZM638.457 102.821C647.812 102.844 668.056 104.641 675.268 99.6085C682.231 91.7668 678.742 80.2035 668.29 79.0494C658.983 78.0211 647.951 78.5646 638.501 78.6139L638.457 102.821ZM638.489 71.9184C645.467 71.9049 652.477 71.9232 659.456 71.9828C665.337 72.0332 667.781 71.7263 672.654 68.3274C683.622 54.7369 667.841 45.9714 655.653 48.4428C653.069 48.9669 641.823 48.5762 638.481 48.5072L638.489 71.9184Z" fill="#FEFEFE"/>
<path d="M138.148 1.59332L151.424 1.60539L151.428 108.727L130.348 108.74C129.661 88.202 130.508 66.7933 130.194 46.2013C130.107 40.5159 130.833 26.8815 130.325 21.9857C131.137 18.3515 136.519 5.23192 138.148 1.59332Z" fill="#FEFEFE"/>
<path d="M722.742 41.5267C726.41 41.5108 730.082 41.5858 733.75 41.7518C735.304 44.3126 737.462 49.645 738.766 52.5977L747.592 72.5096L758.02 95.7656C759.812 99.751 762.836 105.969 764.072 109.991L755.703 109.982C753.45 104.121 750.131 97.1378 747.54 91.2769L733.409 91.3007L708.94 91.2563C706.588 96.3981 702.391 104.895 700.611 109.961L691.979 110.001C699.721 94.0144 706.596 76.539 714.17 60.3861C717.111 54.1091 719.539 47.7623 722.742 41.5267ZM729.037 83.7978L744.496 83.7839C742.414 80.0229 728.978 49.1507 727.984 48.2971C724.618 56.1582 721.141 63.972 717.556 71.7366C716.102 74.9426 713.61 80.8586 711.981 83.791L729.037 83.7978Z" fill="#FEFEFE"/>
<path d="M432.912 40.6497C434.215 40.4388 435.868 40.469 437.219 40.4789C457.026 40.6215 469.02 47.2438 474.023 66.7556C471.201 67.2852 468.392 67.8676 465.59 68.5017C464.601 62.9723 461.719 56.4707 457.03 53.1059C446.741 45.724 427.849 46.5205 417.27 52.7775C404.807 59.629 404.557 81.9826 410.887 92.7308C418.426 105.537 443.991 106.498 455.579 99.0721C461.497 95.2805 464.259 90.9148 465.781 84.3127L442.111 84.3616L428.258 84.358C428.079 82.2022 428.175 80.0185 428.226 77.8544L474.051 77.9008L474.063 109.955L467.482 109.988L466.909 92.1373C459.45 110.972 442.739 112.936 424.626 109.839C398.294 105.336 390.947 72.3175 405.67 52.8859C412.219 44.2407 422.726 41.7387 432.912 40.6497Z" fill="#FEFEFE"/>
<path d="M574.833 40.6584C577.71 40.2137 582.713 40.5854 585.594 40.8414C584.247 43.4419 583.047 45.512 581.263 47.8247C570.056 48.5052 557.891 48.9701 551.815 60.1546C548.222 66.7742 548.016 80.4493 550.11 87.4163C551.739 92.6995 555.396 97.1239 560.276 99.7216C573.199 106.611 598.645 105.48 605.993 90.7413C609.816 83.08 609.979 72.3325 607.523 64.2992C609.291 61.3902 610.861 58.8048 612.411 55.7548C613.381 57.4346 614.49 59.7437 615.404 61.5089C616.473 64.7534 617.009 68.4731 617.331 71.8113C619.505 94.3912 606.303 109.316 583.659 110.927C563.093 112.389 542.885 104.447 540.501 81.5701C537.942 57.0408 550.313 42.6455 574.833 40.6584Z" fill="#FEFEFE"/>
<path d="M489.812 41.3691C492.991 41.5986 494.597 41.5986 497.776 41.3822L497.816 81.8107C497.816 86.6464 498.102 98.2383 497.629 102.533C510.398 102.386 523.432 102.521 536.225 102.52L536.249 109.942C522.391 110.515 504.019 109.973 489.816 109.98C489.26 101.449 489.617 87.026 489.673 78.0957C489.741 66.783 489.228 52.3357 489.812 41.3691Z" fill="#FEFEFE"/>
<path d="M590.113 40.4642L617.009 40.4654C614.64 45.6279 608.278 56.0927 605.067 61.3771C597.238 61.7812 586.135 61.4307 578.059 61.4259C581.704 54.4891 586.206 47.3598 590.113 40.4642Z" fill="#AF32FE"/>
<path d="M349.294 150.124C356.942 150.108 375.499 148.614 366.289 161.805C367.24 165.313 371.447 164.926 368.504 170.999C368.255 171.29 367.994 171.57 367.72 171.837C363.876 175.59 354.785 174.426 349.292 174.346C349.054 166.273 349.055 158.196 349.294 150.124ZM353.461 170.742C357.035 170.805 361.109 171.31 364.42 169.783C365.122 168.63 365.527 167.909 365.324 166.539C364.863 165.477 364.366 164.87 363.268 164.437C360.118 163.196 356.637 163.849 353.357 163.642C353.485 166.017 353.632 168.365 353.461 170.742ZM353.533 160.152C356.803 160.189 361.008 160.742 363.953 159.177C364.418 158.122 364.929 157.223 364.47 156.048C364.133 155.187 363.459 154.625 362.62 154.28C359.959 153.185 356.322 153.595 353.473 153.654C353.518 155.79 353.692 158.026 353.533 160.152Z" fill="#FEFEFE"/>
<path d="M705.745 150.068C710.188 150.04 718.434 149.397 722.102 151.661C728.071 155.346 726.243 164.125 719.141 165.718C721.673 168.17 724.181 171.249 726.478 173.96C726.144 174.364 724.193 174.495 723.497 174.592C721.164 174.19 716.467 168.083 714.75 166.127L709.93 166.098C709.965 168.461 710.697 171.891 709.544 173.663C708.59 174.36 706.981 174.773 705.956 174.05C705.101 170.04 705.511 154.662 705.745 150.068ZM709.957 162.39C712.715 162.433 717.826 163.154 720.135 161.658C721.049 160.166 721.899 158.658 721.442 156.852C721.212 155.922 720.632 155.266 719.821 154.785C717.067 153.149 713.025 153.665 709.922 153.724C709.95 156.587 710.132 159.536 709.957 162.39Z" fill="#FEFEFE"/>
<path d="M220.225 149.875C225.003 150.728 232.611 148.951 236.734 151.808C242.496 155.801 240.58 164.068 233.498 165.75C235.617 167.608 239.016 171.743 240.845 173.96C240.502 174.367 238.571 174.493 237.869 174.589C235.655 174.258 230.871 168.105 229.121 166.112L224.238 166.104C224.379 168.583 225.131 172.554 223.363 174.293C222.226 174.379 221.652 174.491 220.593 174.017C219.72 171.321 220.187 153.829 220.225 149.875ZM224.286 162.385C226.777 162.418 232.117 163.111 234.24 161.963C235.244 160.452 236.267 158.925 235.879 157.013C235.688 156.07 235.132 155.383 234.332 154.875C231.569 153.125 227.399 153.654 224.264 153.724C224.298 156.58 224.495 159.54 224.286 162.385Z" fill="#FEFEFE"/>
<path d="M495.07 150.055C500.176 150.046 512.464 148.785 514.22 155.097C515.711 160.438 513.604 164.02 508.482 165.768C510.632 168.562 513.179 170.94 515.409 173.92C514.816 174.413 513.426 174.46 512.531 174.589C509.698 173.733 506.09 168.707 503.971 166.171L499.067 166.082C499.099 168.106 499.497 172.914 498.324 174.266C497.235 174.351 496.25 174.555 495.332 173.986C494.469 169.959 494.847 154.704 495.07 150.055ZM498.96 162.408C501.583 162.44 507.258 163.177 509.372 161.692C510.123 159.983 510.926 158.174 510.191 156.302C509.821 155.374 509.106 154.747 508.204 154.357C505.533 153.207 501.901 153.641 499.032 153.691L498.96 162.408Z" fill="#FEFEFE"/>
<path d="M674.394 149.906C680.061 150.747 690.628 148.129 693.31 154.658C695.675 160.427 692.611 163.966 687.691 166.029C687.81 166.126 687.93 166.225 688.045 166.326C689.424 167.528 694.487 172.578 694.586 174.166L693.318 174.547C692.782 174.523 691.133 174.445 690.791 174.191C688.18 172.276 685.319 168.49 683.105 166.082L678.364 166.125C678.436 168.283 678.897 172.415 677.804 174.123C676.81 174.514 676.143 174.369 675.09 174.269C673.742 172.761 674.366 153.415 674.394 149.906ZM678.372 162.389C681.194 162.446 686.606 163.237 688.812 161.398C689.631 159.939 690.278 158.39 689.801 156.695C689.531 155.742 688.899 155.082 688.037 154.626C685.287 153.167 681.392 153.693 678.356 153.707L678.372 162.389Z" fill="#FEFEFE"/>
<path d="M794.132 168.122C795.868 162.894 797.442 155.152 800.113 150.508C801.265 150.042 802.517 150.122 803.741 150.116L804.118 150.642L803.502 152.916C802.751 156.338 797.537 171.154 795.801 173.814C794.748 174.231 793.933 174.142 792.832 174.014C790.941 173.028 787.268 160.333 786.41 157.825C785.58 161.767 783.183 171.128 780.616 174.013C779.452 174.22 778.593 174.141 777.445 173.877C775.342 170.818 770.105 154.516 768.65 150.092C769.648 150.098 771.293 149.897 772.171 150.314C774.623 151.475 777.977 165.342 779.217 168.591C780.282 165.221 783.362 152.521 785.862 150.88C786.358 150.555 786.664 150.756 787.213 150.882C789.82 153.269 792.697 164.242 794.132 168.122Z" fill="#FEFEFE"/>
<path d="M622.37 150.117L627.103 150.072C627.103 154.969 627.536 169.886 626.845 173.91C625.887 174.642 624.46 174.577 623.491 173.887C622.819 172.749 623.081 163.313 623.089 161.291C623.145 159.604 623.225 158.366 622.946 156.676C622.028 157.261 615.865 166.195 614.653 167.843C612.769 165.835 608.139 158.938 606.331 156.357C606.359 158.809 606.899 173.183 605.838 174.117C604.757 174.166 603.752 174.291 602.734 173.926C601.804 170.735 602.238 153.955 602.564 150.086C603.398 150.068 605.298 149.992 605.941 150.406C609.582 152.741 612.197 158.125 614.792 161.506C616.556 158.347 620.22 153.268 622.37 150.117Z" fill="#FEFEFE"/>
<path d="M127.969 149.855C128.745 149.988 130.396 150.346 130.935 150.832C135.552 154.994 140.333 161.898 144.337 166.829C144.267 161.246 144.281 155.663 144.38 150.082L144.722 150.078C145.866 150.067 147.766 149.942 148.529 150.691C149.055 155.417 148.721 168.889 148.699 174.274C147.609 174.426 146.035 174.487 145.258 173.719C140.51 169.028 136.188 162.628 131.927 157.555C131.947 160.565 132.471 172.49 131.225 174.301C130.093 174.363 129.279 174.508 128.279 173.949C127.427 170.174 127.917 154.483 127.969 149.855Z" fill="#FEFEFE"/>
<path d="M268.697 150.035C273.724 150.389 281.778 163.102 285.056 167.531C284.957 165.151 284.65 152.429 285.453 150.782C286.766 150.039 286.755 150.312 288.51 150.382C289.416 151.659 288.85 170.539 289.107 174.061C288.557 174.258 287.466 174.547 287.001 174.332C283.575 172.747 274.475 160.297 272.592 157.46C272.63 162.502 272.832 168.806 272.527 173.74L272.027 174.177C271.052 174.225 269.547 174.437 268.803 173.942C268.034 169.948 268.295 154.437 268.697 150.035Z" fill="#FEFEFE"/>
<path d="M45.9596 149.862L46.1309 149.894C46.8212 150.025 48.4049 150.356 48.8746 150.816C53.163 155.011 59.0684 162.803 62.3581 167.649C62.3188 164.347 61.8017 152.452 63.0011 150.212C67.1571 149.542 66.4192 152.244 66.4132 155.644C66.4025 161.934 66.4879 168.315 66.2527 174.595C65.7388 174.57 65.2262 174.522 64.7163 174.453C61.9011 174.05 52.022 160.462 49.8021 157.469C49.7966 160.01 50.5512 173.042 49.1889 174.135C48.1386 174.198 47.3235 174.32 46.3173 173.992C45.327 170.882 45.784 153.945 45.9596 149.862Z" fill="#FEFEFE"/>
<path d="M465.328 150.073C468.007 150.102 481.896 149.553 483.021 150.869C483.108 152.224 483.307 152.226 482.782 153.336C480.501 154.69 472.581 154.124 469.608 154.064C469.688 156.331 469.656 158.121 469.557 160.387C473.264 160.476 479.086 159.994 482.385 160.553C483.036 161.306 482.85 162.394 482.814 163.426C481.534 164.455 472.926 164.064 470.824 164.044L470.01 164.121C469.497 165.038 469.632 168.897 469.465 170.505C471.675 170.548 481.999 170.14 483.028 170.954C483.112 172.136 483.418 173.3 482.854 174.143C480.048 174.705 468.694 174.378 465.356 174.354C465.241 166.261 465.229 158.166 465.328 150.073Z" fill="#FEFEFE"/>
<path d="M380.635 150.101C383.235 150.15 397.269 149.543 398.469 150.762C398.485 152.362 398.704 152.04 397.921 153.28C395.615 154.833 388.005 154.125 384.731 154.055L384.787 160.412C387.946 160.413 395.295 160.12 397.746 160.576C398.318 161.317 398.139 162.442 398.107 163.421C396.696 164.457 388.376 164.065 386.177 164.043C385.965 164.041 385.285 164.183 385.034 164.228C384.577 165.312 384.743 168.977 384.716 170.504C388.032 170.564 396.63 169.738 398.588 171.578C398.6 172.946 398.851 173.199 398.159 174.093C394.683 174.72 384.595 174.383 380.666 174.352C380.381 167.046 380.32 157.39 380.635 150.101Z" fill="#FEFEFE"/>
<path d="M16.2024 150.111C18.9543 150.131 32.6824 149.484 34.1108 150.915C34.0325 152.521 34.2554 152.065 33.3544 153.35C31.0055 154.823 23.5027 154.12 20.2134 154.05L20.2408 160.411C22.8901 160.431 31.4766 159.908 33.3097 160.833C33.4762 162.329 33.5931 161.824 32.9965 163.21C30.9897 164.744 24.4525 164.061 21.3603 164.046L20.4799 164.187C19.9811 165.591 20.2084 168.864 20.2496 170.52C24.7003 170.563 29.1084 170.401 33.5584 170.557L33.9986 171.106C34.0497 172.023 34.2545 173.362 33.8203 174.104C30.8082 174.715 19.7383 174.378 16.2225 174.349C15.8869 167.224 15.8427 157.221 16.2024 150.111Z" fill="#FEFEFE"/>
<path d="M161.462 150.127C165.05 150.172 176.154 149.695 178.847 150.4C179.314 151.395 179.161 152.375 179.102 153.475C177.35 154.555 167.772 154.088 165.284 154.052L165.332 160.411C169.406 160.428 174.044 160.08 178.006 160.495C178.658 161.479 178.46 162.104 178.525 163.447C177.454 164.419 168.378 164.057 166.413 164.045L165.565 164.207C165.071 165.592 165.321 168.896 165.373 170.546C168.766 170.499 172.159 170.484 175.551 170.501C176.685 170.509 178.386 170.273 179.019 170.914C179.068 172.182 179.353 173.295 178.71 174.169C175.614 174.692 164.941 174.378 161.364 174.352C161.235 166.829 161.06 157.585 161.462 150.127Z" fill="#FEFEFE"/>
<path d="M190.871 150.127C193.587 150.159 207.496 149.447 208.59 150.899C208.545 152.437 208.755 152.068 207.963 153.291C205.638 154.836 197.959 154.127 194.664 154.055L194.72 160.413C198.434 160.421 203.946 160.03 207.393 160.532C208.02 161.474 207.829 162.158 207.89 163.451C206.892 164.416 197.729 164.058 195.821 164.046L194.948 164.192C194.443 165.588 194.686 168.87 194.734 170.532C198.031 170.503 201.327 170.492 204.624 170.5C205.773 170.507 207.786 170.269 208.426 170.916C208.486 171.851 208.708 173.37 208.28 174.109C205.251 174.718 194.315 174.379 190.788 174.348C190.637 166.831 190.473 157.595 190.871 150.127Z" fill="#FEFEFE"/>
<path d="M435.884 150.225C436.119 150.211 436.357 150.202 436.592 150.196C439.139 150.142 454.093 149.587 455.238 150.69C455.325 152.224 455.536 151.984 454.829 153.145C453.08 154.04 449.495 153.681 447.357 153.651C447.461 158.204 447.385 163.064 447.397 167.643C447.477 169.864 447.946 172.609 446.634 174.227C445.315 174.397 444.953 174.466 443.67 174.104C442.616 172.324 443.137 156.667 443.173 153.611C441.257 153.688 436.834 154.247 435.578 152.864C435.264 151.852 435.566 151.224 435.884 150.225Z" fill="#FEFEFE"/>
<path d="M538.764 150.225C541.542 150.18 557.136 149.506 558.332 150.807C558.312 152.35 558.523 151.992 557.728 153.187C556.111 154.063 552.367 153.679 550.325 153.643L550.305 167.643C550.356 169.354 550.746 173.006 549.725 174.211C548.64 174.49 548.032 174.358 546.935 174.231C545.754 172.628 546.104 156.512 546.084 153.641C544.081 153.714 540.175 154.206 538.712 152.959C538.259 151.89 538.49 151.335 538.764 150.225Z" fill="#FEFEFE"/>
<path d="M407.812 150.208C410.375 150.101 426.251 149.664 427.463 150.618C427.471 152.198 427.69 151.954 426.947 153.188C425.476 154.059 421.733 153.676 419.758 153.654C420.032 156.878 419.893 162.445 419.897 165.857C419.885 168.48 420.727 172.504 418.864 174.238C417.791 174.372 417.381 174.464 416.328 174.095C415.227 171.255 415.776 157.43 415.827 153.611C413.304 153.599 410.423 154.2 408.312 153.213C407.482 151.896 407.764 152.035 407.812 150.208Z" fill="#FEFEFE"/>
<path d="M252.006 150.225C253.426 150.138 254.576 149.964 255.688 150.631C256.234 154.785 255.872 169.702 255.832 174.369C254.643 174.393 252.583 174.563 251.768 173.793C251.302 170.519 251.349 153.08 252.006 150.225Z" fill="#FEFEFE"/>
<path d="M111.767 150.204C113.035 150.157 114.19 150.032 115.088 150.755C115.576 155.062 115.382 169.711 115.175 174.441C113.976 174.438 112.257 174.599 111.467 173.658C111.008 170.239 111.034 153.246 111.767 150.204Z" fill="#FEFEFE"/>
<path d="M321.953 0H334.176C344.589 2.19194 352.484 1.55063 362.466 8.73956C370.73 14.6921 373.894 22.9266 375.508 32.6772C368.566 34.1253 361.965 36.2884 355.19 38.3582C354.015 32.3741 353.276 26.2215 347.365 22.9096C337.916 17.7165 325.946 18.6056 315.73 20.2235C304.97 21.9277 300.648 35.4931 311.292 39.8576C331.901 48.2626 370.431 42.121 377.977 69.5506C383.218 88.6045 368.251 104.759 350.333 108.234C333.663 111.466 312.93 110.878 298.057 102.174C286.815 95.5949 283.728 87.4564 280.779 75.8375C287.065 73.661 295.49 72.2436 302.521 70.0365C307.325 92.4152 323.072 92.2456 343.083 90.8656C349.872 90.3979 358.941 84.8785 356.836 76.9197C356.097 74.1271 354.962 72.186 352.198 70.6742C338.834 65.5915 326.094 64.8316 311.573 62.129C288.768 57.8848 275.396 36.4696 288.017 15.4449C294.304 4.97066 310.068 2.0015 321.953 0Z" fill="#FEFEFE"/>
<path d="M774.536 41.4985C777.135 41.6005 780.056 41.5203 782.679 41.5037C782.901 59.4789 782.627 77.4939 782.71 95.4731C782.718 97.823 782.734 100.192 782.528 102.534L813.883 102.544V109.943L774.568 109.999C773.999 88.3092 774.313 63.2991 774.536 41.4985Z" fill="#FEFEFE"/>
<path d="M746.38 175.087C736.842 172.191 734.784 166.644 736.64 157.208C737.097 154.895 740.864 151.873 742.911 150.815C745.7 149.338 748.975 149.068 751.971 150.069C755.091 151.105 757.658 153.357 759.089 156.314C763.019 164.322 759.025 173.137 750.147 175.087H746.38ZM741.567 156.22C740.168 159.731 739.302 163.069 740.864 166.755C741.627 168.56 743.022 169.973 744.846 170.708C746.71 171.459 749.09 171.553 751.041 171.097C753.545 169.903 755.23 168.135 756.172 165.485C756.983 163.2 756.796 160.463 755.723 158.292C754.713 156.249 752.858 154.563 750.684 153.838C749.007 153.28 746.889 153.541 745.136 153.616C743.912 154.413 742.597 155.177 741.567 156.22Z" fill="#FEFEFE"/>
<path d="M576.76 175.087C568.581 172.509 564.241 166.441 567.071 157.875C568.052 154.834 570.21 152.311 573.06 150.863C589.091 142.83 600.171 169.925 580.507 175.087H576.76ZM572.718 169.329C575.5 170.857 577.968 171.817 581.219 171.187C583.754 170.018 585.415 168.523 586.389 165.845C587.287 163.328 587.148 160.556 585.999 158.142C584.93 155.867 583.436 154.584 581.199 153.534L575.472 153.642C573.004 155.139 571.323 156.818 570.62 159.744C569.825 163.045 570.914 166.416 572.654 169.231L572.718 169.329Z" fill="#FEFEFE"/>
<path d="M648.647 175.087C644.696 173.659 641.394 172.253 639.49 168.092C632.437 152.652 655.001 141.641 661.793 156.666C663.311 160.051 663.422 163.9 662.107 167.368C660.434 171.685 656.889 174.114 652.474 175.087H648.647ZM653.733 171.056C656.126 169.848 657.934 167.739 658.761 165.195C659.5 162.95 659.269 160.334 658.192 158.235C657.179 156.257 655.244 154.478 653.101 153.805C651.424 153.28 649.33 153.56 647.59 153.657C645.006 155.195 643.488 156.69 642.701 159.72C642.058 162.201 642.336 165.105 643.659 167.327C644.776 169.206 646.596 170.564 648.718 171.101C650.383 171.505 652.068 171.342 653.733 171.056Z" fill="#FEFEFE"/>
<path d="M310.929 175.087C302.918 172.539 297.871 167.114 300.749 158.197C301.758 154.973 304.028 152.294 307.043 150.767C312.175 148.189 317.722 149.707 321.943 153.238C321.426 153.761 320.105 155.38 319.4 155.146C315.225 153.764 313.822 153.449 309.414 153.623C307.375 155.058 306.84 155.58 305.173 157.435C304.341 160.914 303.641 164.392 305.701 167.706C306.723 169.374 308.377 170.557 310.287 170.986C313.38 171.698 315.895 170.829 318.589 169.425C318.491 167.781 318.319 165.776 318.354 164.159C316.777 164.178 314.187 164.392 312.86 163.74C312.346 162.672 312.544 162.804 312.794 161.442C314.234 160.139 320.444 160.693 322.73 160.753C322.674 164.121 322.636 167.49 322.616 170.858C320.112 172.497 317.474 174.43 314.551 175.087H310.929Z" fill="#FEFEFE"/>
<path d="M88.3337 175.087C84.7607 174 80.2621 172.207 78.8437 168.56C73.2109 154.081 86.6611 143.908 99.3394 153.265C97.9815 154.494 97.753 155.138 96.153 155.299C95.3177 154.757 94.4935 154.198 93.6816 153.622C91.4796 153.584 89.1635 153.498 86.9726 153.629C81.2977 156.959 81.1757 160.362 82.0059 166.423C84.5667 170.17 89.2072 173.113 93.6196 170.631C96.2591 169.146 95.8474 166.684 95.793 164.143C94.1934 164.183 91.4605 164.413 90.0652 163.868C89.2899 162.896 89.549 163.021 89.7012 161.451C90.9296 160.108 97.7371 160.675 99.8282 160.724L99.8163 170.811C96.8867 172.876 95.2104 174.269 91.6747 175.087H88.3337Z" fill="#FEFEFE"/>
</g>
<defs>
<clipPath id="clip0_870_1795">
<rect width="813.883" height="175.087" fill="white"/>
</clipPath>
</defs>
</svg>
