<svg width="814" height="664" viewBox="0 0 814 664" fill="none" xmlns="http://www.w3.org/2000/svg">
<g opacity="0.5" filter="url(#filter0_fn_334_600)">
<path d="M374.456 296.145C333.601 276.843 320.508 231.321 349.989 206.012C400.483 162.661 476.59 194.152 530.296 173.45C560.468 161.82 597.965 152.659 628.524 168.35C651.764 180.288 672.032 206.012 660.821 241.285C649.609 276.558 625.844 283.995 635.657 324.071C643.04 354.241 643.65 366.372 632.155 378.124C607.259 403.576 550.451 360.668 529.051 343.662C484.769 308.479 423.496 319.327 374.456 296.145Z" fill="#636363"/>
</g>
<g opacity="0.5" filter="url(#filter1_fn_334_600)">
<path d="M342.246 332.949C385.098 327.918 398.861 322.61 428.565 299.656C472.674 265.581 538.477 265.427 557.293 330.607C571.762 380.737 557.811 442.934 525.701 471.45C471.631 519.471 371.561 528.057 309.446 491.01C255.895 459.076 238.687 397.639 272.078 357.601C283.402 344.021 301.203 337.765 342.246 332.949Z" fill="#AF33FF"/>
</g>
<g opacity="0.5" filter="url(#filter2_fn_334_600)">
<path d="M150.449 309.927C143.821 250.966 210.935 150 329.028 150C397.744 150 450 181.8 450 250.16C450 327.082 336.275 385.849 272.244 394.423C207.057 403.153 157.845 375.718 150.449 309.927Z" fill="#EFD5FF"/>
</g>
<defs>
<filter id="filter0_fn_334_600" x="184" y="10" width="630" height="526" filterUnits="userSpaceOnUse" color-interpolation-filters="sRGB">
<feFlood flood-opacity="0" result="BackgroundImageFix"/>
<feBlend mode="normal" in="SourceGraphic" in2="BackgroundImageFix" result="shape"/>
<feGaussianBlur stdDeviation="75" result="effect1_foregroundBlur_334_600"/>
<feTurbulence type="fractalNoise" baseFrequency="2 2" stitchTiles="stitch" numOctaves="3" result="noise" seed="7316" />
<feColorMatrix in="noise" type="luminanceToAlpha" result="alphaNoise" />
<feComponentTransfer in="alphaNoise" result="coloredNoise1">
<feFuncA type="discrete" tableValues="1 1 1 1 1 1 1 1 1 1 1 1 1 1 1 1 1 1 1 1 1 1 1 1 1 1 1 1 1 1 1 1 1 1 1 1 1 1 1 1 1 1 1 1 1 1 1 1 1 1 1 0 0 0 0 0 0 0 0 0 0 0 0 0 0 0 0 0 0 0 0 0 0 0 0 0 0 0 0 0 0 0 0 0 0 0 0 0 0 0 0 0 0 0 0 0 0 0 0 0 "/>
</feComponentTransfer>
<feComposite operator="in" in2="effect1_foregroundBlur_334_600" in="coloredNoise1" result="noise1Clipped" />
<feFlood flood-color="rgba(0, 0, 0, 0.25)" result="color1Flood" />
<feComposite operator="in" in2="noise1Clipped" in="color1Flood" result="color1" />
<feMerge result="effect2_noise_334_600">
<feMergeNode in="effect1_foregroundBlur_334_600" />
<feMergeNode in="color1" />
</feMerge>
</filter>
<filter id="filter1_fn_334_600" x="105" y="127" width="608" height="537" filterUnits="userSpaceOnUse" color-interpolation-filters="sRGB">
<feFlood flood-opacity="0" result="BackgroundImageFix"/>
<feBlend mode="normal" in="SourceGraphic" in2="BackgroundImageFix" result="shape"/>
<feGaussianBlur stdDeviation="75" result="effect1_foregroundBlur_334_600"/>
<feTurbulence type="fractalNoise" baseFrequency="2 2" stitchTiles="stitch" numOctaves="3" result="noise" seed="7316" />
<feColorMatrix in="noise" type="luminanceToAlpha" result="alphaNoise" />
<feComponentTransfer in="alphaNoise" result="coloredNoise1">
<feFuncA type="discrete" tableValues="1 1 1 1 1 1 1 1 1 1 1 1 1 1 1 1 1 1 1 1 1 1 1 1 1 1 1 1 1 1 1 1 1 1 1 1 1 1 1 1 1 1 1 1 1 1 1 1 1 1 1 0 0 0 0 0 0 0 0 0 0 0 0 0 0 0 0 0 0 0 0 0 0 0 0 0 0 0 0 0 0 0 0 0 0 0 0 0 0 0 0 0 0 0 0 0 0 0 0 0 "/>
</feComponentTransfer>
<feComposite operator="in" in2="effect1_foregroundBlur_334_600" in="coloredNoise1" result="noise1Clipped" />
<feFlood flood-color="rgba(0, 0, 0, 0.25)" result="color1Flood" />
<feComposite operator="in" in2="noise1Clipped" in="color1Flood" result="color1" />
<feMerge result="effect2_noise_334_600">
<feMergeNode in="effect1_foregroundBlur_334_600" />
<feMergeNode in="color1" />
</feMerge>
</filter>
<filter id="filter2_fn_334_600" x="0" y="0" width="600" height="546" filterUnits="userSpaceOnUse" color-interpolation-filters="sRGB">
<feFlood flood-opacity="0" result="BackgroundImageFix"/>
<feBlend mode="normal" in="SourceGraphic" in2="BackgroundImageFix" result="shape"/>
<feGaussianBlur stdDeviation="75" result="effect1_foregroundBlur_334_600"/>
<feTurbulence type="fractalNoise" baseFrequency="2 2" stitchTiles="stitch" numOctaves="3" result="noise" seed="7316" />
<feColorMatrix in="noise" type="luminanceToAlpha" result="alphaNoise" />
<feComponentTransfer in="alphaNoise" result="coloredNoise1">
<feFuncA type="discrete" tableValues="1 1 1 1 1 1 1 1 1 1 1 1 1 1 1 1 1 1 1 1 1 1 1 1 1 1 1 1 1 1 1 1 1 1 1 1 1 1 1 1 1 1 1 1 1 1 1 1 1 1 1 0 0 0 0 0 0 0 0 0 0 0 0 0 0 0 0 0 0 0 0 0 0 0 0 0 0 0 0 0 0 0 0 0 0 0 0 0 0 0 0 0 0 0 0 0 0 0 0 0 "/>
</feComponentTransfer>
<feComposite operator="in" in2="effect1_foregroundBlur_334_600" in="coloredNoise1" result="noise1Clipped" />
<feFlood flood-color="rgba(0, 0, 0, 0.25)" result="color1Flood" />
<feComposite operator="in" in2="noise1Clipped" in="color1Flood" result="color1" />
<feMerge result="effect2_noise_334_600">
<feMergeNode in="effect1_foregroundBlur_334_600" />
<feMergeNode in="color1" />
</feMerge>
</filter>
</defs>
</svg>
